<svg width="20" height="20" viewBox="0 0 20 20" fill="none" xmlns="http://www.w3.org/2000/svg">
<path d="M5.83325 9.30555C5.83325 7.34136 5.83325 6.35927 6.44345 5.74908C7.05364 5.13889 8.03573 5.13889 9.99992 5.13889H12.0833C14.0474 5.13889 15.0295 5.13889 15.6397 5.74908C16.2499 6.35927 16.2499 7.34136 16.2499 9.30555V12.7778C16.2499 14.7419 16.2499 15.724 15.6397 16.3342C15.0295 16.9444 14.0474 16.9444 12.0833 16.9444H9.99992C8.03573 16.9444 7.05364 16.9444 6.44345 16.3342C5.83325 15.724 5.83325 14.7419 5.83325 12.7778V9.30555Z" stroke="#F4F4F4" stroke-width="1.28333"/>
<path d="M5.83333 14.8611C4.68274 14.8611 3.75 13.9284 3.75 12.7778V8.61111C3.75 5.9922 3.75 4.68274 4.56359 3.86915C5.37719 3.05556 6.68664 3.05556 9.30556 3.05556H12.0833C13.234 3.05556 14.1667 3.9883 14.1667 5.13889" stroke="#F4F4F4" stroke-width="1.28333"/>
</svg>
