<svg width="16" height="16" viewBox="0 0 16 16" fill="none" xmlns="http://www.w3.org/2000/svg">
<path d="M13.653 1.65994C13.6284 1.66075 13.6038 1.66292 13.5795 1.66645H9.33268C9.24434 1.6652 9.15664 1.68152 9.07466 1.71446C8.99268 1.74741 8.91806 1.79631 8.85515 1.85834C8.79224 1.92037 8.74228 1.99429 8.70818 2.07579C8.67408 2.1573 8.65652 2.24477 8.65652 2.33312C8.65652 2.42147 8.67408 2.50894 8.70818 2.59044C8.74228 2.67195 8.79224 2.74586 8.85515 2.80789C8.91806 2.86992 8.99268 2.91883 9.07466 2.95177C9.15664 2.98471 9.24434 3.00103 9.33268 2.99978H12.0567L7.528 7.52843C7.46401 7.58986 7.41293 7.66344 7.37774 7.74486C7.34255 7.82628 7.32396 7.9139 7.32306 8.00259C7.32215 8.09129 7.33896 8.17927 7.37248 8.26139C7.40601 8.34351 7.45558 8.41811 7.5183 8.48083C7.58102 8.54355 7.65563 8.59312 7.73775 8.62665C7.81986 8.66018 7.90785 8.67698 7.99654 8.67608C8.08524 8.67518 8.17286 8.65658 8.25428 8.62139C8.3357 8.5862 8.40928 8.53512 8.47071 8.47114L12.9994 3.94249V6.66645C12.9981 6.75479 13.0145 6.8425 13.0474 6.92448C13.0803 7.00646 13.1292 7.08107 13.1913 7.14398C13.2533 7.2069 13.3272 7.25686 13.4087 7.29095C13.4902 7.32505 13.5777 7.34261 13.666 7.34261C13.7544 7.34261 13.8419 7.32505 13.9234 7.29095C14.0049 7.25686 14.0788 7.2069 14.1408 7.14398C14.2029 7.08107 14.2518 7.00646 14.2847 6.92448C14.3176 6.8425 14.334 6.75479 14.3327 6.66645V2.41515C14.3456 2.31936 14.3375 2.22193 14.3089 2.12959C14.2804 2.03725 14.2321 1.95222 14.1675 1.88038C14.1028 1.80855 14.0233 1.75163 13.9345 1.71356C13.8457 1.6755 13.7496 1.6572 13.653 1.65994ZM4.16602 2.66645C2.79358 2.66645 1.66602 3.79401 1.66602 5.16645V11.8332C1.66602 13.2056 2.79358 14.3332 4.16602 14.3332H10.8327C12.2052 14.3332 13.3327 13.2056 13.3327 11.8332V8.66645C13.334 8.57811 13.3176 8.4904 13.2847 8.40842C13.2518 8.32644 13.2029 8.25183 13.1408 8.18892C13.0788 8.126 13.0049 8.07605 12.9234 8.04195C12.8419 8.00785 12.7544 7.99029 12.666 7.99029C12.5777 7.99029 12.4902 8.00785 12.4087 8.04195C12.3272 8.07605 12.2533 8.126 12.1913 8.18892C12.1292 8.25183 12.0803 8.32644 12.0474 8.40842C12.0145 8.4904 11.9981 8.57811 11.9994 8.66645V11.8332C11.9994 12.4821 11.4816 12.9998 10.8327 12.9998H4.16602C3.51712 12.9998 2.99935 12.4821 2.99935 11.8332V5.16645C2.99935 4.51755 3.51712 3.99978 4.16602 3.99978H7.33268C7.42103 4.00103 7.50873 3.98471 7.59071 3.95177C7.67269 3.91883 7.74731 3.86992 7.81022 3.80789C7.87313 3.74586 7.92309 3.67195 7.95719 3.59044C7.99129 3.50894 8.00885 3.42147 8.00885 3.33312C8.00885 3.24477 7.99129 3.1573 7.95719 3.07579C7.92309 2.99429 7.87313 2.92037 7.81022 2.85834C7.74731 2.79631 7.67269 2.74741 7.59071 2.71446C7.50873 2.68152 7.42103 2.6652 7.33268 2.66645H4.16602Z" fill="#F4F4F4"/>
</svg>
